<?xml version="1.0" encoding="utf-8"?>
<svg version="1.1" id="entertainment" xmlns="http://www.w3.org/2000/svg" xmlns:xlink="http://www.w3.org/1999/xlink" x="0px" y="0px"
	 viewBox="0 0 60 88" style="enable-background:new 0 0 60 88;" xml:space="preserve">
<g style="display:none;">
	<g style="display:inline;">
		<path style="fill-rule:evenodd;clip-rule:evenodd;fill:#9DC53B;" d="M42.3,4.5c-0.1,0-0.2,0-0.3,0c-0.9,0-1.6,0.7-1.6,1.6
			c0,0.1,0,0.1,0,0.2v75.5c0,0.9,0.7,1.6,1.6,1.6s1.6-0.7,1.6-1.6V55.5h7.9c0.9,0,1.6-0.7,1.6-1.6C53,30.4,48.7,5.4,42.3,4.5z
			 M43.6,52.2V9.9c2.5,5.2,6.1,20.1,6.3,42.4H43.6z M29.4,4.5c-0.9,0-1.6,0.7-1.6,1.6v16.5c0,4-2.7,7.3-6.3,8.1V6.1
			c0-0.9-0.7-1.6-1.6-1.6c-0.9,0-1.6,0.7-1.6,1.6v24.5c-3.6-0.8-6.3-4.1-6.3-8.1V6.1c0-0.9-0.7-1.6-1.6-1.6C9.7,4.5,9,5.2,9,6.1
			v16.5c0,5.8,4.1,10.6,9.4,11.4v47.9c0,0.9,0.7,1.6,1.6,1.6c0.9,0,1.6-0.7,1.6-1.6V34c5.3-0.8,9.4-5.6,9.4-11.4V6.1
			C31,5.2,30.3,4.5,29.4,4.5z"/>
	</g>
</g>
<g>
	<g>
		<path style="fill:#9DC53B;" d="M30,4.5C17.6,4.5,7.5,15.1,7.5,28.2C7.5,40.8,28,73.6,28.8,75c0.3,0.4,0.7,0.7,1.2,0.7
			c0.5,0,0.9-0.2,1.2-0.7c0.9-1.4,21.3-34.2,21.3-46.7C52.5,15.1,42.4,4.5,30,4.5z M30,71.4c-4.4-7.3-19.6-33.1-19.6-43.2
			c0-11.4,8.8-20.7,19.6-20.7c10.8,0,19.6,9.3,19.6,20.7C49.6,38.3,34.4,64.2,30,71.4z M30,17.8c-5.4,0-9.8,4.7-9.8,10.4
			c0,5.7,4.4,10.4,9.8,10.4c5.4,0,9.8-4.7,9.8-10.4C39.8,22.5,35.4,17.8,30,17.8z M30,35.6c-3.9,0-7-3.3-7-7.4c0-4.1,3.1-7.4,7-7.4
			c3.9,0,7,3.3,7,7.4C37,32.3,33.9,35.6,30,35.6z"/>
	</g>
</g>
</svg>
