<?xml version="1.0" encoding="utf-8"?>
<!-- Generator: Adobe Illustrator 17.1.0, SVG Export Plug-In . SVG Version: 6.00 Build 0)  -->
<!DOCTYPE svg PUBLIC "-//W3C//DTD SVG 1.1//EN" "http://www.w3.org/Graphics/SVG/1.1/DTD/svg11.dtd">
<svg version="1.1" id="back-arrow" xmlns="http://www.w3.org/2000/svg" xmlns:xlink="http://www.w3.org/1999/xlink" x="0px" y="0px"
	 viewBox="0 0 43.9 20" style="enable-background:new 0 0 43.9 20;" xml:space="preserve">
<path style="fill:#9DC53B;" d="M0,10l7.6,10h3.3l0.1-0.1L3.5,10L11,0.1L10.9,0H7.6L0,10z"/>
<g>
	<path style="fill:#9DC53B;" d="M13.9,5.9c0.5-0.1,1.4-0.2,2.2-0.2c1.2,0,2,0.2,2.6,0.7c0.5,0.4,0.8,0.9,0.8,1.7
		c0,0.9-0.6,1.7-1.6,2.1v0c0.9,0.2,1.9,1,1.9,2.4c0,0.8-0.3,1.4-0.8,1.9c-0.7,0.6-1.7,0.9-3.3,0.9c-0.8,0-1.5-0.1-1.9-0.1V5.9z
		 M15.2,9.7h1.1c1.3,0,2-0.7,2-1.6c0-1.1-0.8-1.5-2.1-1.5c-0.6,0-0.9,0-1.1,0.1V9.7z M15.2,14.3c0.2,0,0.6,0.1,1,0.1
		c1.3,0,2.4-0.5,2.4-1.8c0-1.3-1.1-1.8-2.4-1.8h-1V14.3z"/>
	<path style="fill:#9DC53B;" d="M25.2,15.2l-0.1-0.9h0c-0.4,0.5-1.1,1-2.1,1c-1.4,0-2.1-1-2.1-1.9c0-1.6,1.5-2.5,4.1-2.5v-0.1
		c0-0.6-0.2-1.6-1.5-1.6c-0.6,0-1.3,0.2-1.8,0.5l-0.3-0.8c0.6-0.4,1.4-0.6,2.2-0.6c2.1,0,2.6,1.4,2.6,2.8v2.5c0,0.6,0,1.2,0.1,1.6
		H25.2z M25.1,11.7c-1.3,0-2.9,0.2-2.9,1.5c0,0.8,0.5,1.2,1.2,1.2c0.9,0,1.4-0.6,1.6-1.1c0-0.1,0.1-0.3,0.1-0.4V11.7z"/>
	<path style="fill:#9DC53B;" d="M33.1,14.9c-0.3,0.2-1,0.4-1.9,0.4c-2,0-3.4-1.4-3.4-3.5c0-2.1,1.4-3.6,3.6-3.6
		c0.7,0,1.4,0.2,1.7,0.4l-0.3,1c-0.3-0.2-0.8-0.3-1.4-0.3c-1.6,0-2.4,1.1-2.4,2.6c0,1.6,1,2.5,2.4,2.5c0.7,0,1.2-0.2,1.5-0.3
		L33.1,14.9z"/>
	<path style="fill:#9DC53B;" d="M35.7,11.5L35.7,11.5c0.2-0.2,0.4-0.5,0.6-0.8l2-2.3h1.5l-2.6,2.8l3,4h-1.5l-2.3-3.2l-0.6,0.7v2.5
		h-1.2V5.2h1.2V11.5z"/>
</g>
</svg>
