<?xml version="1.0" encoding="utf-8"?>

<svg version="1.1" id="barber" xmlns="http://www.w3.org/2000/svg" xmlns:xlink="http://www.w3.org/1999/xlink" x="0px" y="0px"
	 viewBox="0 0 60 88" style="enable-background:new 0 0 60 88;" xml:space="preserve">
<g style="display:none;">
	<g style="display:inline;">
		<path style="fill-rule:evenodd;clip-rule:evenodd;fill:#9DC53B;" d="M42.3,4.5c-0.1,0-0.2,0-0.3,0c-0.9,0-1.6,0.7-1.6,1.6
			c0,0.1,0,0.1,0,0.2v75.5c0,0.9,0.7,1.6,1.6,1.6s1.6-0.7,1.6-1.6V55.5h7.9c0.9,0,1.6-0.7,1.6-1.6C53,30.4,48.7,5.4,42.3,4.5z
			 M43.6,52.2V9.9c2.5,5.2,6.1,20.1,6.3,42.4H43.6z M29.4,4.5c-0.9,0-1.6,0.7-1.6,1.6v16.5c0,4-2.7,7.3-6.3,8.1V6.1
			c0-0.9-0.7-1.6-1.6-1.6c-0.9,0-1.6,0.7-1.6,1.6v24.5c-3.6-0.8-6.3-4.1-6.3-8.1V6.1c0-0.9-0.7-1.6-1.6-1.6C9.7,4.5,9,5.2,9,6.1
			v16.5c0,5.8,4.1,10.6,9.4,11.4v47.9c0,0.9,0.7,1.6,1.6,1.6c0.9,0,1.6-0.7,1.6-1.6V34c5.3-0.8,9.4-5.6,9.4-11.4V6.1
			C31,5.2,30.3,4.5,29.4,4.5z"/>
	</g>
</g>
<g style="display:none;">
	<g style="display:inline;">
		<path style="fill:#9DC53B;" d="M30,4.5C17.6,4.5,7.5,15.1,7.5,28.2C7.5,40.8,28,73.6,28.8,75c0.3,0.4,0.7,0.7,1.2,0.7
			c0.5,0,0.9-0.2,1.2-0.7c0.9-1.4,21.3-34.2,21.3-46.7C52.5,15.1,42.4,4.5,30,4.5z M30,71.4c-4.4-7.3-19.6-33.1-19.6-43.2
			c0-11.4,8.8-20.7,19.6-20.7c10.8,0,19.6,9.3,19.6,20.7C49.6,38.3,34.4,64.2,30,71.4z M30,17.8c-5.4,0-9.8,4.7-9.8,10.4
			c0,5.7,4.4,10.4,9.8,10.4c5.4,0,9.8-4.7,9.8-10.4C39.8,22.5,35.4,17.8,30,17.8z M30,35.6c-3.9,0-7-3.3-7-7.4c0-4.1,3.1-7.4,7-7.4
			c3.9,0,7,3.3,7,7.4C37,32.3,33.9,35.6,30,35.6z"/>
	</g>
</g>
<path style="fill-rule:evenodd;clip-rule:evenodd;fill:#9DC53B;" d="M56.1,60.1c-1.4,2.4-2.3,5.3-2.6,8.4c0,0.5-0.1,1.1-0.1,1.6
	c0,0.5,0.1,1,0.1,1.5h-3H30H9.4h-3c0-0.5,0.1-1,0.1-1.5c0-0.5-0.1-1.1-0.1-1.6c-0.2-3.1-1.1-6-2.6-8.4c-0.5-0.9-1.2-1.8-1.9-2.5
	c0.6-0.8,1.3-1.5,2.2-2.1c0.7-0.5,1.5-1,2.4-1.3l14-5.1v-7.9c0-0.1,0-0.2,0.1-0.3c-4.3-3.6-7.2-9.6-7.2-16.4
	c0-11,7.4-19.9,16.5-19.9c8.5,0,15.5,7.9,16.3,17.9c0,0,0.1,0.1,0.1,0.1c0,0.1,0,0.1,0,0.1c0,0.6,0.1,1.1,0.1,1.7
	c0,6.8-2.9,12.8-7.2,16.4c0,0.1,0.1,0.2,0.1,0.3V49l14,5.1c0.9,0.3,1.7,0.8,2.4,1.3c0.8,0.6,1.6,1.3,2.2,2.1
	C57.3,58.3,56.7,59.1,56.1,60.1z M30,7.6c-6.4,0-11.7,5.5-13.1,12.9c1.3,0.5,2.6,0.9,4.1,0.9c3.9,0,8.6-2.4,10-5.1
	c0.3-0.5,0.8-0.8,1.3-0.8c0.6-0.1,1.1,0.3,1.3,0.8c2.6,4.6,5.3,6,9.6,5.2c0,0,0,0,0,0C42.1,13.5,36.6,7.6,30,7.6z M43.5,24.4
	c-0.9,0.2-1.7,0.3-2.5,0.3c-3.6,0-6.4-1.6-8.8-5c-2.6,2.7-7.1,4.7-11.2,4.7c-1.6,0-3-0.3-4.4-0.8c0,0.3-0.1,0.5-0.1,0.8
	c0,9.3,6.1,16.8,13.5,16.8C37.4,41.2,43.5,33.7,43.5,24.4z M52.4,57l-15-5.5c-0.6-0.2-1-0.8-1-1.4v-7.3c-2,1-4.1,1.5-6.4,1.5
	c-2.3,0-4.4-0.6-6.4-1.5v7.3c0,0.6-0.4,1.2-1,1.4L7.6,57C7,57.2,6.5,57.5,6,57.9c1.9,3,3.1,6.6,3.4,10.6H30h20.6
	c0.3-4,1.5-7.6,3.4-10.6C53.5,57.5,53,57.2,52.4,57z"/>
</svg>
