<?xml version="1.0" encoding="utf-8"?>
<!-- Generator: Adobe Illustrator 17.1.0, SVG Export Plug-In . SVG Version: 6.00 Build 0)  -->
<!DOCTYPE svg PUBLIC "-//W3C//DTD SVG 1.1//EN" "http://www.w3.org/Graphics/SVG/1.1/DTD/svg11.dtd">
<svg version="1.1" id="Layer_1" xmlns="http://www.w3.org/2000/svg" xmlns:xlink="http://www.w3.org/1999/xlink" x="0px" y="0px"
	 viewBox="0 0 288.1 288" style="enable-background:new 0 0 288.1 288;" xml:space="preserve">
<g style="display:none;">
	<path style="display:inline;fill:#17316C;" d="M549.8,494.6c0-141.4-114.8-256.2-256.2-256.2c-141.5,0-256.2,114.8-256.2,256.2
		c0,141.5,114.8,256.3,256.2,256.3C435,750.9,549.8,636.1,549.8,494.6"/>
	<path style="display:inline;fill:#18326C;" d="M547.6,494.6c0-140.2-113.8-254.1-254.1-254.1c-140.2,0-254.1,113.8-254.1,254.1
		c0,140.2,113.8,254.1,254.1,254.1C433.8,748.7,547.6,634.8,547.6,494.6"/>
	<path style="display:inline;fill:#18326D;" d="M545.4,494.6c0-139-112.8-251.9-251.9-251.9c-139,0-251.9,112.8-251.9,251.9
		c0,139,112.8,251.9,251.9,251.9C432.6,746.5,545.4,633.6,545.4,494.6"/>
	<path style="display:inline;fill:#19336E;" d="M543.2,494.6c0-137.8-111.9-249.7-249.7-249.7c-137.8,0-249.7,111.9-249.7,249.7
		c0,137.8,111.9,249.7,249.7,249.7C431.4,744.3,543.2,632.4,543.2,494.6"/>
	<path style="display:inline;fill:#19346E;" d="M541.1,494.6c0-136.6-110.9-247.5-247.5-247.5C156.9,247.1,46,358,46,494.6
		c0,136.6,110.9,247.5,247.5,247.5C430.2,742.1,541.1,631.2,541.1,494.6"/>
	<path style="display:inline;fill:#1A346F;" d="M538.9,494.6c0-135.4-109.9-245.4-245.4-245.4c-135.4,0-245.4,109.9-245.4,245.4
		C48.2,630,158.1,740,293.5,740C429,740,538.9,630,538.9,494.6"/>
	<path style="display:inline;fill:#1A3570;" d="M536.7,494.6c0-134.2-108.9-243.2-243.2-243.2c-134.2,0-243.2,108.9-243.2,243.2
		c0,134.2,108.9,243.2,243.2,243.2C427.8,737.8,536.7,628.8,536.7,494.6"/>
	<path style="display:inline;fill:#1B3670;" d="M534.5,494.6c0-133-108-241-241-241c-133,0-241,108-241,241s108,241,241,241
		C426.6,735.6,534.5,627.6,534.5,494.6"/>
	<path style="display:inline;fill:#1B3671;" d="M532.4,494.6c0-131.8-107-238.8-238.8-238.8c-131.8,0-238.8,107-238.8,238.8
		c0,131.8,107,238.8,238.8,238.8C425.4,733.4,532.4,626.4,532.4,494.6"/>
	<path style="display:inline;fill:#1C3772;" d="M530.2,494.6c0-130.6-106-236.7-236.7-236.7c-130.6,0-236.7,106-236.7,236.7
		s106,236.7,236.7,236.7C424.2,731.3,530.2,625.2,530.2,494.6"/>
	<path style="display:inline;fill:#1C3872;" d="M528,494.6c0-129.4-105-234.5-234.5-234.5C164.1,260.1,59,365.2,59,494.6
		c0,129.4,105,234.5,234.5,234.5C423,729.1,528,624,528,494.6"/>
	<path style="display:inline;fill:#1D3873;" d="M525.8,494.6c0-128.2-104.1-232.3-232.3-232.3c-128.2,0-232.3,104.1-232.3,232.3
		s104.1,232.3,232.3,232.3C421.8,726.9,525.8,622.8,525.8,494.6"/>
	<path style="display:inline;fill:#1D3974;" d="M523.7,494.6c0-127-103.1-230.1-230.1-230.1c-127,0-230.1,103.1-230.1,230.1
		c0,127,103.1,230.1,230.1,230.1C420.6,724.7,523.7,621.6,523.7,494.6"/>
	<path style="display:inline;fill:#1E3A74;" d="M521.5,494.6c0-125.8-102.1-227.9-227.9-227.9c-125.8,0-227.9,102.1-227.9,227.9
		s102.1,228,227.9,228C419.4,722.6,521.5,620.4,521.5,494.6"/>
	<path style="display:inline;fill:#1E3B75;" d="M519.3,494.6c0-124.6-101.1-225.8-225.8-225.8C168.9,268.8,67.8,370,67.8,494.6
		c0,124.6,101.1,225.8,225.8,225.8C418.2,720.4,519.3,619.2,519.3,494.6"/>
	<path style="display:inline;fill:#1F3B76;" d="M517.1,494.6C517.1,371.2,417,271,293.5,271C170.1,271,69.9,371.2,69.9,494.6
		s100.2,223.6,223.6,223.6C417,718.2,517.1,618,517.1,494.6"/>
	<path style="display:inline;fill:#1F3C76;" d="M514.9,494.6c0-122.2-99.2-221.4-221.4-221.4c-122.2,0-221.4,99.2-221.4,221.4
		c0,122.2,99.2,221.4,221.4,221.4C415.8,716,514.9,616.8,514.9,494.6"/>
	<path style="display:inline;fill:#203D77;" d="M512.8,494.6c0-121-98.2-219.2-219.2-219.2c-121,0-219.2,98.2-219.2,219.2
		s98.2,219.2,219.2,219.2C414.6,713.8,512.8,615.6,512.8,494.6"/>
	<path style="display:inline;fill:#213D78;" d="M510.6,494.6c0-119.8-97.2-217.1-217.1-217.1c-119.8,0-217.1,97.2-217.1,217.1
		c0,119.8,97.2,217.1,217.1,217.1C413.3,711.7,510.6,614.4,510.6,494.6"/>
	<path style="display:inline;fill:#213E78;" d="M508.4,494.6c0-118.6-96.3-214.9-214.9-214.9c-118.6,0-214.9,96.3-214.9,214.9
		s96.3,214.9,214.9,214.9C412.1,709.5,508.4,613.2,508.4,494.6"/>
	<path style="display:inline;fill:#223F79;" d="M506.2,494.6c0-117.4-95.3-212.7-212.7-212.7c-117.4,0-212.7,95.3-212.7,212.7
		c0,117.4,95.3,212.7,212.7,212.7C410.9,707.3,506.2,612,506.2,494.6"/>
	<path style="display:inline;fill:#223F7A;" d="M504.1,494.6c0-116.2-94.3-210.5-210.5-210.5C177.3,284.1,83,378.4,83,494.6
		c0,116.2,94.3,210.5,210.5,210.5C409.7,705.1,504.1,610.8,504.1,494.6"/>
	<path style="display:inline;fill:#23407A;" d="M501.9,494.6c0-115-93.3-208.4-208.4-208.4c-115,0-208.4,93.3-208.4,208.4
		c0,115,93.3,208.4,208.4,208.4C408.5,703,501.9,609.6,501.9,494.6"/>
	<path style="display:inline;fill:#23417B;" d="M499.7,494.6c0-113.8-92.4-206.2-206.2-206.2c-113.8,0-206.2,92.4-206.2,206.2
		c0,113.8,92.4,206.2,206.2,206.2C407.3,700.8,499.7,608.4,499.7,494.6"/>
	<path style="display:inline;fill:#24417C;" d="M497.5,494.6c0-112.6-91.4-204-204-204c-112.6,0-204,91.4-204,204
		c0,112.6,91.4,204,204,204C406.1,698.6,497.5,607.2,497.5,494.6"/>
	<path style="display:inline;fill:#25427C;" d="M495.4,494.6c0-111.4-90.4-201.8-201.8-201.8c-111.4,0-201.8,90.4-201.8,201.8
		c0,111.4,90.4,201.8,201.8,201.8C404.9,696.4,495.4,606,495.4,494.6"/>
	<path style="display:inline;fill:#25437D;" d="M493.2,494.6c0-110.2-89.4-199.7-199.6-199.7c-110.2,0-199.7,89.4-199.7,199.7
		c0,110.2,89.4,199.6,199.7,199.6C403.7,694.2,493.2,604.8,493.2,494.6"/>
	<path style="display:inline;fill:#26437E;" d="M491,494.6c0-109-88.5-197.5-197.5-197.5c-109,0-197.5,88.5-197.5,197.5
		s88.5,197.5,197.5,197.5C402.5,692.1,491,603.6,491,494.6"/>
	<path style="display:inline;fill:#26447F;" d="M488.8,494.6c0-107.8-87.5-195.3-195.3-195.3c-107.8,0-195.3,87.5-195.3,195.3
		c0,107.8,87.5,195.3,195.3,195.3C401.3,689.9,488.8,602.4,488.8,494.6"/>
	<path style="display:inline;fill:#27457F;" d="M486.6,494.6c0-106.6-86.5-193.1-193.1-193.1c-106.6,0-193.1,86.5-193.1,193.1
		c0,106.6,86.5,193.1,193.1,193.1C400.1,687.7,486.6,601.2,486.6,494.6"/>
	<path style="display:inline;fill:#274680;" d="M484.5,494.6c0-105.4-85.5-190.9-190.9-190.9c-105.4,0-190.9,85.5-190.9,190.9
		c0,105.4,85.5,190.9,190.9,190.9C398.9,685.5,484.5,600,484.5,494.6"/>
	<path style="display:inline;fill:#284681;" d="M482.3,494.6c0-104.2-84.6-188.8-188.8-188.8c-104.2,0-188.8,84.6-188.8,188.8
		s84.6,188.8,188.8,188.8C397.7,683.4,482.3,598.8,482.3,494.6"/>
	<path style="display:inline;fill:#294781;" d="M480.1,494.6c0-103-83.6-186.6-186.6-186.6c-103,0-186.6,83.6-186.6,186.6
		c0,103,83.6,186.6,186.6,186.6C396.5,681.2,480.1,597.6,480.1,494.6"/>
	<path style="display:inline;fill:#294882;" d="M477.9,494.6c0-101.8-82.6-184.4-184.4-184.4c-101.8,0-184.4,82.6-184.4,184.4
		c0,101.8,82.6,184.4,184.4,184.4C395.3,679,477.9,596.4,477.9,494.6"/>
	<path style="display:inline;fill:#2A4883;" d="M475.8,494.6c0-100.6-81.6-182.2-182.2-182.2c-100.6,0-182.2,81.6-182.2,182.2
		c0,100.6,81.6,182.2,182.2,182.2C394.1,676.8,475.8,595.2,475.8,494.6"/>
	<path style="display:inline;fill:#2A4984;" d="M473.6,494.6c0-99.4-80.7-180.1-180.1-180.1c-99.4,0-180.1,80.7-180.1,180.1
		s80.7,180.1,180.1,180.1C392.9,674.7,473.6,594,473.6,494.6"/>
	<path style="display:inline;fill:#2B4A84;" d="M471.4,494.6c0-98.2-79.7-177.9-177.9-177.9c-98.2,0-177.9,79.7-177.9,177.9
		c0,98.2,79.7,177.9,177.9,177.9C391.7,672.5,471.4,592.8,471.4,494.6"/>
	<path style="display:inline;fill:#2B4B85;" d="M469.2,494.6c0-97-78.7-175.7-175.7-175.7c-97,0-175.7,78.7-175.7,175.7
		c0,97,78.7,175.7,175.7,175.7C390.5,670.3,469.2,591.6,469.2,494.6"/>
	<path style="display:inline;fill:#2C4B86;" d="M467.1,494.6c0-95.8-77.7-173.5-173.5-173.5c-95.8,0-173.5,77.7-173.5,173.5
		c0,95.8,77.7,173.5,173.5,173.5C389.3,668.1,467.1,590.4,467.1,494.6"/>
	<path style="display:inline;fill:#2C4C87;" d="M464.9,494.6c0-94.6-76.8-171.4-171.4-171.4c-94.6,0-171.4,76.8-171.4,171.4
		c0,94.6,76.8,171.4,171.4,171.4C388.1,666,464.9,589.2,464.9,494.6"/>
	<path style="display:inline;fill:#2D4D87;" d="M462.7,494.6c0-93.4-75.8-169.2-169.2-169.2c-93.4,0-169.2,75.8-169.2,169.2
		c0,93.4,75.8,169.2,169.2,169.2C386.9,663.8,462.7,588,462.7,494.6"/>
	<path style="display:inline;fill:#2E4D88;" d="M460.5,494.6c0-92.2-74.8-167-167-167c-92.2,0-167,74.8-167,167
		c0,92.2,74.8,167,167,167C385.7,661.6,460.5,586.8,460.5,494.6"/>
	<path style="display:inline;fill:#2E4E89;" d="M458.3,494.6c0-91-73.8-164.8-164.8-164.8c-91,0-164.8,73.8-164.8,164.8
		c0,91,73.8,164.8,164.8,164.8C384.5,659.4,458.3,585.6,458.3,494.6"/>
	<path style="display:inline;fill:#2F4F8A;" d="M456.2,494.6c0-89.8-72.9-162.6-162.6-162.6c-89.8,0-162.6,72.9-162.6,162.6
		c0,89.8,72.9,162.6,162.6,162.6C383.3,657.2,456.2,584.4,456.2,494.6"/>
	<path style="display:inline;fill:#2F4F8A;" d="M454,494.6c0-88.6-71.9-160.5-160.5-160.5c-88.6,0-160.5,71.9-160.5,160.5
		c0,88.6,71.9,160.5,160.5,160.5C382.1,655.1,454,583.2,454,494.6"/>
	<path style="display:inline;fill:#30508B;" d="M451.8,494.6c0-87.4-70.9-158.3-158.3-158.3c-87.4,0-158.3,70.9-158.3,158.3
		c0,87.4,70.9,158.3,158.3,158.3C380.9,652.9,451.8,582,451.8,494.6"/>
	<path style="display:inline;fill:#30518C;" d="M449.6,494.6c0-86.2-69.9-156.1-156.1-156.1c-86.2,0-156.1,69.9-156.1,156.1
		c0,86.2,69.9,156.1,156.1,156.1C379.7,650.7,449.6,580.8,449.6,494.6"/>
	<path style="display:inline;fill:#31528D;" d="M447.5,494.6c0-85-69-153.9-153.9-153.9c-85,0-153.9,69-153.9,153.9
		c0,85,69,153.9,153.9,153.9C378.5,648.5,447.5,579.6,447.5,494.6"/>
	<path style="display:inline;fill:#32528D;" d="M445.3,494.6c0-83.8-68-151.8-151.8-151.8c-83.8,0-151.8,68-151.8,151.8
		c0,83.8,68,151.8,151.8,151.8C377.3,646.4,445.3,578.4,445.3,494.6"/>
	<path style="display:inline;fill:#32538E;" d="M443.1,494.6c0-82.6-67-149.6-149.6-149.6c-82.6,0-149.6,67-149.6,149.6
		c0,82.6,67,149.6,149.6,149.6C376.1,644.2,443.1,577.2,443.1,494.6"/>
	<path style="display:inline;fill:#33548F;" d="M440.9,494.6c0-81.4-66-147.4-147.4-147.4c-81.4,0-147.4,66-147.4,147.4
		c0,81.4,66,147.4,147.4,147.4C374.9,642,440.9,576,440.9,494.6"/>
	<path style="display:inline;fill:#335490;" d="M438.8,494.6c0-80.2-65.1-145.2-145.2-145.2c-80.2,0-145.2,65.1-145.2,145.2
		s65.1,145.2,145.2,145.2C373.7,639.8,438.8,574.8,438.8,494.6"/>
	<path style="display:inline;fill:#345590;" d="M436.6,494.6c0-79-64.1-143.1-143.1-143.1c-79,0-143.1,64.1-143.1,143.1
		c0,79,64.1,143,143.1,143C372.5,637.6,436.6,573.6,436.6,494.6"/>
	<path style="display:inline;fill:#345691;" d="M434.4,494.6c0-77.8-63.1-140.9-140.9-140.9c-77.8,0-140.9,63.1-140.9,140.9
		c0,77.8,63.1,140.9,140.9,140.9C371.3,635.5,434.4,572.4,434.4,494.6"/>
	<path style="display:inline;fill:#355792;" d="M432.2,494.6c0-76.6-62.1-138.7-138.7-138.7c-76.6,0-138.7,62.1-138.7,138.7
		S217,633.3,293.5,633.3C370.1,633.3,432.2,571.2,432.2,494.6"/>
	<path style="display:inline;fill:#365793;" d="M430,494.6c0-75.4-61.2-136.5-136.5-136.5c-75.4,0-136.5,61.2-136.5,136.5
		c0,75.4,61.2,136.5,136.5,136.5C368.9,631.1,430,570,430,494.6"/>
	<path style="display:inline;fill:#365894;" d="M427.9,494.6c0-74.2-60.2-134.3-134.3-134.3c-74.2,0-134.3,60.2-134.3,134.3
		c0,74.2,60.2,134.3,134.3,134.3C367.7,628.9,427.9,568.8,427.9,494.6"/>
	<path style="display:inline;fill:#375994;" d="M425.7,494.6c0-73-59.2-132.2-132.2-132.2c-73,0-132.2,59.2-132.2,132.2
		c0,73,59.2,132.2,132.2,132.2C366.5,626.8,425.7,567.6,425.7,494.6"/>
	<path style="display:inline;fill:#375A95;" d="M423.5,494.6c0-71.8-58.2-130-130-130c-71.8,0-130,58.2-130,130
		c0,71.8,58.2,130,130,130C365.3,624.6,423.5,566.4,423.5,494.6"/>
	<path style="display:inline;fill:#385A96;" d="M421.3,494.6c0-70.6-57.3-127.8-127.8-127.8c-70.6,0-127.8,57.3-127.8,127.8
		c0,70.6,57.3,127.8,127.8,127.8C364.1,622.4,421.3,565.2,421.3,494.6"/>
	<path style="display:inline;fill:#395B97;" d="M419.2,494.6c0-69.4-56.3-125.6-125.6-125.6c-69.4,0-125.6,56.3-125.6,125.6
		c0,69.4,56.3,125.6,125.6,125.6C362.9,620.2,419.2,564,419.2,494.6"/>
	<path style="display:inline;fill:#395C97;" d="M417,494.6c0-68.1-55.3-123.5-123.5-123.5c-68.1,0-123.5,55.3-123.5,123.5
		c0,68.1,55.3,123.5,123.5,123.5C361.7,618.1,417,562.7,417,494.6"/>
	<path style="display:inline;fill:#3A5C98;" d="M414.8,494.6c0-66.9-54.3-121.3-121.3-121.3c-66.9,0-121.3,54.3-121.3,121.3
		c0,66.9,54.3,121.3,121.3,121.3C360.5,615.9,414.8,561.5,414.8,494.6"/>
	<path style="display:inline;fill:#3A5D99;" d="M412.6,494.6c0-65.7-53.4-119.1-119.1-119.1c-65.7,0-119.1,53.4-119.1,119.1
		c0,65.7,53.4,119.1,119.1,119.1C359.3,613.7,412.6,560.3,412.6,494.6"/>
	<path style="display:inline;fill:#3B5E9A;" d="M410.5,494.6c0-64.5-52.4-116.9-116.9-116.9c-64.5,0-116.9,52.4-116.9,116.9
		c0,64.5,52.4,116.9,116.9,116.9C358.1,611.5,410.5,559.1,410.5,494.6"/>
	<path style="display:inline;fill:#3B5F9B;" d="M408.3,494.6c0-63.3-51.4-114.8-114.7-114.8c-63.3,0-114.8,51.4-114.8,114.8
		c0,63.3,51.4,114.8,114.8,114.8C356.9,609.4,408.3,557.9,408.3,494.6"/>
	<path style="display:inline;fill:#3C5F9B;" d="M406.1,494.6c0-62.1-50.4-112.6-112.6-112.6C231.4,382,181,432.5,181,494.6
		c0,62.1,50.4,112.6,112.6,112.6C355.7,607.2,406.1,556.7,406.1,494.6"/>
	<path style="display:inline;fill:#3D609C;" d="M403.9,494.6c0-60.9-49.5-110.4-110.4-110.4c-60.9,0-110.4,49.5-110.4,110.4
		c0,60.9,49.5,110.4,110.4,110.4C354.5,605,403.9,555.5,403.9,494.6"/>
	<path style="display:inline;fill:#3D619D;" d="M401.8,494.6c0-59.7-48.5-108.2-108.2-108.2c-59.7,0-108.2,48.5-108.2,108.2
		c0,59.7,48.5,108.2,108.2,108.2C353.3,602.8,401.8,554.3,401.8,494.6"/>
	<path style="display:inline;fill:#3E629E;" d="M399.6,494.6c0-58.5-47.5-106-106-106c-58.5,0-106,47.5-106,106
		c0,58.5,47.5,106,106,106C352.1,600.6,399.6,553.1,399.6,494.6"/>
	<path style="display:inline;fill:#3E629F;" d="M397.4,494.6c0-57.3-46.5-103.9-103.9-103.9c-57.3,0-103.9,46.5-103.9,103.9
		c0,57.3,46.5,103.9,103.9,103.9C350.9,598.5,397.4,551.9,397.4,494.6"/>
	<path style="display:inline;fill:#3F63A0;" d="M395.2,494.6c0-56.1-45.6-101.7-101.7-101.7c-56.1,0-101.7,45.6-101.7,101.7
		c0,56.1,45.6,101.7,101.7,101.7C349.7,596.3,395.2,550.7,395.2,494.6"/>
	<path style="display:inline;fill:#4064A1;" d="M393,494.6c0-54.9-44.6-99.5-99.5-99.5c-54.9,0-99.5,44.6-99.5,99.5
		s44.6,99.5,99.5,99.5C348.5,594.1,393,549.5,393,494.6"/>
	<path style="display:inline;fill:#4065A1;" d="M390.9,494.6c0-53.7-43.6-97.3-97.3-97.3c-53.7,0-97.3,43.6-97.3,97.3
		s43.6,97.3,97.3,97.3C347.3,591.9,390.9,548.3,390.9,494.6"/>
	<path style="display:inline;fill:#4165A2;" d="M388.7,494.6c0-52.5-42.6-95.2-95.2-95.2c-52.5,0-95.2,42.6-95.2,95.2
		c0,52.5,42.6,95.2,95.2,95.2C346.1,589.8,388.7,547.1,388.7,494.6"/>
	<path style="display:inline;fill:#4166A3;" d="M386.5,494.6c0-51.3-41.7-93-93-93c-51.3,0-93,41.7-93,93c0,51.3,41.7,93,93,93
		C344.9,587.6,386.5,545.9,386.5,494.6"/>
	<path style="display:inline;fill:#4267A4;" d="M384.3,494.6c0-50.1-40.7-90.8-90.8-90.8c-50.1,0-90.8,40.7-90.8,90.8
		c0,50.1,40.7,90.8,90.8,90.8C343.7,585.4,384.3,544.7,384.3,494.6"/>
	<path style="display:inline;fill:#4368A5;" d="M382.2,494.6c0-48.9-39.7-88.6-88.6-88.6c-48.9,0-88.6,39.7-88.6,88.6
		c0,48.9,39.7,88.6,88.6,88.6C342.5,583.2,382.2,543.5,382.2,494.6"/>
	<path style="display:inline;fill:#4369A6;" d="M380,494.6c0-47.7-38.7-86.5-86.4-86.5c-47.7,0-86.5,38.7-86.5,86.5
		c0,47.7,38.7,86.5,86.5,86.5C341.3,581.1,380,542.3,380,494.6"/>
	<path style="display:inline;fill:#4469A6;" d="M377.8,494.6c0-46.5-37.8-84.3-84.3-84.3c-46.5,0-84.3,37.8-84.3,84.3
		c0,46.5,37.8,84.3,84.3,84.3C340,578.9,377.8,541.1,377.8,494.6"/>
	<path style="display:inline;fill:#446AA7;" d="M375.6,494.6c0-45.3-36.8-82.1-82.1-82.1c-45.3,0-82.1,36.8-82.1,82.1
		c0,45.3,36.8,82.1,82.1,82.1C338.8,576.7,375.6,539.9,375.6,494.6"/>
	<path style="display:inline;fill:#456BA8;" d="M373.5,494.6c0-44.1-35.8-79.9-79.9-79.9c-44.1,0-79.9,35.8-79.9,79.9
		s35.8,79.9,79.9,79.9C337.6,574.5,373.5,538.7,373.5,494.6"/>
	<path style="display:inline;fill:#466CA9;" d="M371.3,494.6c0-42.9-34.8-77.7-77.7-77.7c-42.9,0-77.7,34.8-77.7,77.7
		c0,42.9,34.8,77.7,77.7,77.7C336.4,572.3,371.3,537.5,371.3,494.6"/>
	<path style="display:inline;fill:#466CAA;" d="M369.1,494.6c0-41.7-33.9-75.6-75.6-75.6c-41.7,0-75.6,33.9-75.6,75.6
		c0,41.7,33.9,75.6,75.6,75.6C335.2,570.2,369.1,536.3,369.1,494.6"/>
	<path style="display:inline;fill:#476DAB;" d="M366.9,494.6c0-40.5-32.9-73.4-73.4-73.4c-40.5,0-73.4,32.9-73.4,73.4
		c0,40.5,32.9,73.4,73.4,73.4C334,568,366.9,535.1,366.9,494.6"/>
	<path style="display:inline;fill:#476EAC;" d="M364.7,494.6c0-39.3-31.9-71.2-71.2-71.2c-39.3,0-71.2,31.9-71.2,71.2
		s31.9,71.2,71.2,71.2C332.8,565.8,364.7,533.9,364.7,494.6"/>
	<path style="display:inline;fill:#486FAD;" d="M362.6,494.6c0-38.1-30.9-69-69-69c-38.1,0-69,30.9-69,69c0,38.1,30.9,69,69,69
		C331.6,563.6,362.6,532.7,362.6,494.6"/>
	<path style="display:inline;fill:#4970AE;" d="M360.4,494.6c0-36.9-30-66.9-66.9-66.9c-36.9,0-66.9,30-66.9,66.9
		c0,36.9,30,66.9,66.9,66.9C330.4,561.5,360.4,531.5,360.4,494.6"/>
	<path style="display:inline;fill:#4970AF;" d="M358.2,494.6c0-35.7-29-64.7-64.7-64.7c-35.7,0-64.7,29-64.7,64.7
		c0,35.7,29,64.7,64.7,64.7C329.2,559.3,358.2,530.3,358.2,494.6"/>
	<path style="display:inline;fill:#4A71AF;" d="M356,494.6c0-34.5-28-62.5-62.5-62.5c-34.5,0-62.5,28-62.5,62.5
		c0,34.5,28,62.5,62.5,62.5C328,557.1,356,529.1,356,494.6"/>
	<path style="display:inline;fill:#4A72B0;" d="M353.9,494.6c0-33.3-27-60.3-60.3-60.3c-33.3,0-60.3,27-60.3,60.3
		c0,33.3,27,60.3,60.3,60.3C326.8,554.9,353.9,527.9,353.9,494.6"/>
	<path style="display:inline;fill:#4B73B1;" d="M351.7,494.6c0-32.1-26.1-58.2-58.1-58.2c-32.1,0-58.2,26.1-58.2,58.2
		c0,32.1,26.1,58.2,58.2,58.2C325.6,552.8,351.7,526.7,351.7,494.6"/>
	<path style="display:inline;fill:#4C74B2;" d="M349.5,494.6c0-30.9-25.1-56-56-56c-30.9,0-56,25.1-56,56c0,30.9,25.1,56,56,56
		C324.4,550.6,349.5,525.5,349.5,494.6"/>
	<path style="display:inline;fill:#4C75B3;" d="M347.3,494.6c0-29.7-24.1-53.8-53.8-53.8c-29.7,0-53.8,24.1-53.8,53.8
		c0,29.7,24.1,53.8,53.8,53.8C323.2,548.4,347.3,524.3,347.3,494.6"/>
	<path style="display:inline;fill:#4D75B5;" d="M345.2,494.6c0-28.5-23.1-51.6-51.6-51.6c-28.5,0-51.6,23.1-51.6,51.6
		c0,28.5,23.1,51.6,51.6,51.6C322,546.2,345.2,523.1,345.2,494.6"/>
	<path style="display:inline;fill:#4D76B6;" d="M343,494.6c0-27.3-22.2-49.4-49.4-49.4c-27.3,0-49.4,22.2-49.4,49.4
		c0,27.3,22.2,49.4,49.4,49.4C320.8,544,343,521.9,343,494.6"/>
	<path style="display:inline;fill:#4E77B7;" d="M340.8,494.6c0-26.1-21.2-47.3-47.3-47.3c-26.1,0-47.3,21.2-47.3,47.3
		c0,26.1,21.2,47.3,47.3,47.3C319.6,541.9,340.8,520.7,340.8,494.6"/>
	<path style="display:inline;fill:#4F78B8;" d="M338.6,494.6c0-24.9-20.2-45.1-45.1-45.1c-24.9,0-45.1,20.2-45.1,45.1
		c0,24.9,20.2,45.1,45.1,45.1C318.4,539.7,338.6,519.5,338.6,494.6"/>
	<path style="display:inline;fill:#4F79B9;" d="M336.4,494.6c0-23.7-19.2-42.9-42.9-42.9c-23.7,0-42.9,19.2-42.9,42.9
		c0,23.7,19.2,42.9,42.9,42.9C317.2,537.5,336.4,518.3,336.4,494.6"/>
	<path style="display:inline;fill:#507ABB;" d="M334.3,494.6c0-22.5-18.2-40.7-40.7-40.7c-22.5,0-40.7,18.2-40.7,40.7
		c0,22.5,18.2,40.7,40.7,40.7C316,535.3,334.3,517.1,334.3,494.6"/>
	<path style="display:inline;fill:#517BBC;" d="M332.1,494.6c0-21.3-17.3-38.6-38.6-38.6c-21.3,0-38.6,17.3-38.6,38.6
		c0,21.3,17.3,38.6,38.6,38.6C314.8,533.2,332.1,515.9,332.1,494.6"/>
	<path style="display:inline;fill:#517CBE;" d="M329.9,494.6c0-20.1-16.3-36.4-36.4-36.4c-20.1,0-36.4,16.3-36.4,36.4
		c0,20.1,16.3,36.4,36.4,36.4C313.6,531,329.9,514.7,329.9,494.6"/>
	<path style="display:inline;fill:#527DBF;" d="M327.7,494.6c0-18.9-15.3-34.2-34.2-34.2c-18.9,0-34.2,15.3-34.2,34.2
		c0,18.9,15.3,34.2,34.2,34.2C312.4,528.8,327.7,513.5,327.7,494.6"/>
</g>
<path style="fill:#3B5999;" d="M263.1,0H25C11.2,0,0,11.2,0,25v238c0,13.8,11.2,25,25,25h238.1c13.8,0,25-11.2,25-25V25
	C288.1,11.2,276.8,0,263.1,0z M254.4,102.8l-3,39h-40v135.7h-50.6V141.8h-27v-39h27V90.5v-12v-2c0-11.5,0.3-29.4,8.7-40.4
	c8.8-11.7,21-19.6,41.9-19.6c34,0,48.4,4.8,48.4,4.8l-6.8,40c0,0-11.2-3.3-21.7-3.3c-10.5,0-19.9,3.8-19.9,14.2v4.3v14v12.2H254.4z"
	/>
</svg>
