<?xml version="1.0" encoding="utf-8"?>
<?xml-stylesheet href="/css/app.css" type="text/css"?>
<svg version="1.1" id="miautism-logo" xmlns="http://www.w3.org/2000/svg" xmlns:xlink="http://www.w3.org/1999/xlink" x="0px" y="0px"
	 viewBox="0 0 177.5 14.4" style="enable-background:new 0 0 177.5 14.4;" xml:space="preserve">
<g>
	<g>
		<path d="M16,13.2L5.8,0H0v1.1h3.4v12.1H0v1.1h9.7v-1.1H5V1l10,13.1h1.9L27,1v12.2h-4.7v1.1H32v-1.1h-3.4
			V1.1H32V0h-5.9L16,13.2z M39,0.7h-1.5v2H39V0.7z M39,4.6h-4.7v1.1h3.2v7.6h-3.2v1H42v-1H39V4.6z M59.7,1.1h5.2V0H50.8v1.1H56
			l-8.9,12.1h-2.6v1.1h8.7v-1.1h-4.4l2.6-3.6h12.8l2.7,3.6h-4.5v1.1h8.8v-1.1h-2.6L59.7,1.1z M52.3,8.5l5.4-7.4H58l5.4,7.4H52.3z
			 M90.6,4.6h-5.4v1.1h3.9v4.7l-3.4,2.9h-7.5l-2.1-1.7V4.6h-4.4v1.1h2.9V12l2.8,2.4h8.7l2.9-2.5l0,2.5h4.5v-1h-3.1V4.6z M100.1,1.2
			h-1.5v3.4h-3.5v1.1h3.5V12l2.8,2.4h7.7v-1h-6.9l-2.1-1.7V5.7h9V4.6h-9V1.2z M115.9,0.7h-1.5v2h1.5V0.7z M115.9,4.6h-4.7v1.1h3.2
			v7.6h-3.2v1h7.8v-1h-3.1V4.6z M125.2,8.9l-1.2-1v-1l1.5-1.3h11l1.2,1v0.7h1.5V6.2l-1.9-1.6h-12.5l-2.3,1.9v1.8l1.9,1.6h12.3l1.2,1
			V12l-1.5,1.3h-11.3l-1.2-1v-0.8h-1.5v1.2l1.9,1.6h12.7l2.3-1.9v-1.9l-1.9-1.6H125.2z M174.6,13.3V7l-2.8-2.4h-8.2L161,6.8
			l-2.6-2.2h-7.7l-2.9,2.5l0-2.5h-4.6v1.1h3.2v7.6h-3.2v1h8.6v-1h-3.9V8.6l3.4-2.9h6.4l2.1,1.7v5.9h-3.9v1h9.4v-1h-3.9V8.1l2.9-2.5
			h6.9l2.1,1.7v5.9h-3.9v1h8.4v-1H174.6z"/>
	</g>
</g>
</svg>
