<?xml version="1.0" encoding="utf-8"?>
<svg version="1.1" id="restaurants-icon" xmlns="http://www.w3.org/2000/svg" xmlns:xlink="http://www.w3.org/1999/xlink" x="0px" y="0px"
	 viewBox="0 0 60 88" style="enable-background:new 0 0 60 88;" xml:space="preserve">
<g>
	<g>
		<path style="fill-rule:evenodd;clip-rule:evenodd;fill:#9DC53B;" d="M41.3,4.5c-0.1,0-0.2,0-0.3,0c-0.9,0-1.6,0.7-1.6,1.6
			c0,0.1,0,0.1,0,0.2v75.5c0,0.9,0.7,1.6,1.6,1.6s1.6-0.7,1.6-1.6V55.5h7.9c0.9,0,1.6-0.7,1.6-1.6C52,30.4,47.7,5.4,41.3,4.5z
			 M42.6,52.2V9.9c2.5,5.2,6.1,20.1,6.3,42.4H42.6z M28.4,4.5c-0.9,0-1.6,0.7-1.6,1.6v16.5c0,4-2.7,7.3-6.3,8.1V6.1
			c0-0.9-0.7-1.6-1.6-1.6c-0.9,0-1.6,0.7-1.6,1.6v24.5c-3.6-0.8-6.3-4.1-6.3-8.1V6.1c0-0.9-0.7-1.6-1.6-1.6C8.7,4.5,8,5.2,8,6.1
			v16.5c0,5.8,4.1,10.6,9.4,11.4v47.9c0,0.9,0.7,1.6,1.6,1.6c0.9,0,1.6-0.7,1.6-1.6V34c5.3-0.8,9.4-5.6,9.4-11.4V6.1
			C30,5.2,29.3,4.5,28.4,4.5z"/>
	</g>
</g>
</svg>
